<svg xmlns="http://www.w3.org/2000/svg" xmlns:xlink="http://www.w3.org/1999/xlink" viewBox="0 0 131.73 39.7"><title>logo-banco</title><defs><symbol id="a"><path d="M65.23,13.29H63a8.26,8.26,0,0,0-.87,0,2.39,2.39,0,0,0-.87.26,1.72,1.72,0,0,0-1,1.72A1.49,1.49,0,0,0,61,16.68a3.55,3.55,0,0,0,1.82.41h.46a3.72,3.72,0,0,0,.62-.06,5.69,5.69,0,0,0,.7-.11,3.91,3.91,0,0,0,.67-.18ZM68,17.74a.78.78,0,0,1-.45.78,7.67,7.67,0,0,1-1.12.4,10,10,0,0,1-1.24.26c-.42.06-.84.1-1.26.13H62.76A8.9,8.9,0,0,1,60.18,19a4.39,4.39,0,0,1-1.63-.85,2.8,2.8,0,0,1-.84-1.26,4.76,4.76,0,0,1-.23-1.51,4.6,4.6,0,0,1,.28-1.59,3.15,3.15,0,0,1,.83-1.32,4.51,4.51,0,0,1,1.62-.89,6.93,6.93,0,0,1,2.4-.36h2.64v-.4a3.5,3.5,0,0,0-.09-.81,1.41,1.41,0,0,0-.36-.66,1.81,1.81,0,0,0-.74-.44,4.1,4.1,0,0,0-1.23-.14,11.46,11.46,0,0,0-1.74.14,10.73,10.73,0,0,0-1.54.33.72.72,0,0,1-.38,0A.33.33,0,0,1,59,9l-.34-1.4a.35.35,0,0,1,.18-.46l.05,0A8.94,8.94,0,0,1,61,6.58a17.09,17.09,0,0,1,2.22-.15,5.1,5.1,0,0,1,3.6,1.08A4.11,4.11,0,0,1,68,10.67Z"/></symbol><symbol id="l"><path d="M72.66,38.84l-.17-1.33a.3.3,0,0,0-.1-.24c-.05,0-.15,0-.28,0h-.86a.74.74,0,0,1-.63-.22,1.41,1.41,0,0,1-.18-.85V22.45c0-.18,0-.29-.1-.33A.66.66,0,0,0,70,22H69.2a1.62,1.62,0,0,0-1.61,1.84v13a3,3,0,0,0,.62,2.16,2.66,2.66,0,0,0,2,.63,7.21,7.21,0,0,0,1.08-.06,4.4,4.4,0,0,0,1.08-.25,1,1,0,0,0,.29-.2.71.71,0,0,0,0-.32"/></symbol></defs><rect x="16.38" y="13.28" width="16" height="9.6" fill="#154734"/><g fill="#545759"><path d="M54,13.93a2.52,2.52,0,0,0-.72-1.85,2.92,2.92,0,0,0-2.11-.72H47.27v5.13h3.9a3.22,3.22,0,0,0,1.42-.25,2.46,2.46,0,0,0,.88-.63,2.1,2.1,0,0,0,.46-.83A3.12,3.12,0,0,0,54,13.93ZM47.27,9h3.82a3.18,3.18,0,0,0,.73-.09,2.09,2.09,0,0,0,.72-.3A1.69,1.69,0,0,0,53.08,8a2.06,2.06,0,0,0,.22-1,1.68,1.68,0,0,0-.58-1.39,2.1,2.1,0,0,0-1.49-.5h-4Zm7.16,1a4.14,4.14,0,0,1,1.15.7,3.76,3.76,0,0,1,.8,1,4.87,4.87,0,0,1,.47,1.16A5,5,0,0,1,57,14.14a4.75,4.75,0,0,1-1.62,3.6,5.24,5.24,0,0,1-1.74,1,6.36,6.36,0,0,1-2.17.36H45.71a1.37,1.37,0,0,1-1-.3,1.55,1.55,0,0,1-.28-1V3.91a1.49,1.49,0,0,1,.28-1,1.32,1.32,0,0,1,1-.33h5.48a7.85,7.85,0,0,1,2,.24,4.32,4.32,0,0,1,1.61.73,3.42,3.42,0,0,1,1.07,1.27,4.27,4.27,0,0,1,.39,1.86,3.63,3.63,0,0,1-.5,1.9,3.75,3.75,0,0,1-1.33,1.3Z" transform="translate(-0.02 0)"/><use xlink:href="#a" x="0" y="0"/><path d="M74.27,8.79h-.74a7.63,7.63,0,0,0-1.13.13v9.76c0,.17,0,.28-.09.33a.66.66,0,0,1-.36.06H70.12a.6.6,0,0,1-.34-.06c-.08,0-.11-.16-.11-.33V8.58A2.32,2.32,0,0,1,70,7.26a1.77,1.77,0,0,1,1.27-.64l.63-.07c.27,0,.56,0,.85-.08l.87,0h.73A9.91,9.91,0,0,1,77,6.74,4.33,4.33,0,0,1,78.9,7.79,4.19,4.19,0,0,1,80,9.66a9.49,9.49,0,0,1,.35,2.78v6.23a.45.45,0,0,1-.09.33.62.62,0,0,1-.36.06H78a.56.56,0,0,1-.33-.06c-.08,0-.11-.16-.11-.33V12.41a7.18,7.18,0,0,0-.15-1.6,2.57,2.57,0,0,0-.53-1.14,2.16,2.16,0,0,0-1-.67,4.85,4.85,0,0,0-1.63-.23" transform="translate(-0.02 0)"/><path d="M87.44,16.94A6.37,6.37,0,0,0,89,16.76a6.52,6.52,0,0,0,1.25-.43.52.52,0,0,1,.38-.07.49.49,0,0,1,.18.23l.59,1.37a.37.37,0,0,1,0,.52l-.11.07a6.16,6.16,0,0,1-2.08.72,13.44,13.44,0,0,1-2.09.17,5.09,5.09,0,0,1-4-1.59A7,7,0,0,1,81.59,13,8.41,8.41,0,0,1,82,10.29a5.86,5.86,0,0,1,1.15-2.07A4.78,4.78,0,0,1,84.94,6.9a5.78,5.78,0,0,1,2.37-.46,9.3,9.3,0,0,1,1.88.19,7.56,7.56,0,0,1,1.71.63c.14.09.23.16.25.24a.46.46,0,0,1-.06.35l-.6,1.39a.35.35,0,0,1-.59.16A10.46,10.46,0,0,0,88.72,9a4.72,4.72,0,0,0-1.31-.16A2.6,2.6,0,0,0,86,9.22a2.67,2.67,0,0,0-.95.91,4.1,4.1,0,0,0-.53,1.31A7,7,0,0,0,84.4,13a7.59,7.59,0,0,0,.14,1.54A3.52,3.52,0,0,0,85,15.79a2.37,2.37,0,0,0,.92.85,3.27,3.27,0,0,0,1.52.31" transform="translate(-0.02 0)"/><path d="M100.42,12.92a9.13,9.13,0,0,0-.13-1.61A4.18,4.18,0,0,0,99.84,10,2.31,2.31,0,0,0,99,9.06a2.58,2.58,0,0,0-1.4-.33A2.52,2.52,0,0,0,96.24,9a2.64,2.64,0,0,0-.94.86,3.79,3.79,0,0,0-.57,1.3,7.71,7.71,0,0,0-.17,1.63,6.39,6.39,0,0,0,.63,3.1A2.39,2.39,0,0,0,97.47,17a2.49,2.49,0,0,0,2.29-1.25,4.41,4.41,0,0,0,.49-1.32,7.32,7.32,0,0,0,.15-1.57m2.81-.07a7.19,7.19,0,0,1-1.46,4.81,5.42,5.42,0,0,1-4.33,1.68,5.31,5.31,0,0,1-4.26-1.63,7.21,7.21,0,0,1-1.4-4.79,8.16,8.16,0,0,1,.43-2.76,5.67,5.67,0,0,1,1.17-2,5,5,0,0,1,1.81-1.26,6,6,0,0,1,2.33-.44,5.27,5.27,0,0,1,4.26,1.71,7.07,7.07,0,0,1,1.46,4.71" transform="translate(-0.02 0)"/></g><g fill="#9fa1a1"><path d="M55.73,22.89c-.05-.1-.19-.12-.41-.12H48.59a4.88,4.88,0,0,0-2,.35,3.59,3.59,0,0,0-1.31.94,3.42,3.42,0,0,0-.7,1.37A6.2,6.2,0,0,0,44.37,27V38.92a.45.45,0,0,0,.14.4.69.69,0,0,0,.41.1h.76a1.63,1.63,0,0,0,1.6-1.84V32.1h7.15c.22,0,.34,0,.4-.14a.78.78,0,0,0,.08-.4V30.2a.73.73,0,0,0-.08-.44.5.5,0,0,0-.4-.11H47.28V26.88a1.62,1.62,0,0,1,.38-1.16,1.69,1.69,0,0,1,1.27-.39h6.38c.21,0,.34,0,.4-.12a.61.61,0,0,0,.1-.43V23.3a.68.68,0,0,0-.1-.41" transform="translate(-0.02 0)"/><use xlink:href="#a" x="-2.2" y="20.3"/><path d="M72.66,38.84l-.17-1.33a.3.3,0,0,0-.1-.24c-.05,0-.15,0-.28,0h-.86a.74.74,0,0,1-.63-.22,1.41,1.41,0,0,1-.18-.85V22.45c0-.18,0-.29-.1-.33A.66.66,0,0,0,70,22H69.2a1.62,1.62,0,0,0-1.61,1.84v13a3,3,0,0,0,.62,2.16,2.66,2.66,0,0,0,2,.63,7.21,7.21,0,0,0,1.08-.06,4.4,4.4,0,0,0,1.08-.25,1,1,0,0,0,.29-.2.71.71,0,0,0,0-.32" transform="translate(-0.02 0)"/><use xlink:href="#a" x="15.5" y="20.3"/><path d="M93.3,35.08a3.6,3.6,0,0,1-.67,1.29,2.49,2.49,0,0,1-1,.72,3.68,3.68,0,0,1-1.35.23H89.17A6.31,6.31,0,0,1,88,37.06v-7.6a7.11,7.11,0,0,1,1.46-.31,9.4,9.4,0,0,1,1.08-.08,2.74,2.74,0,0,1,2.24,1,5,5,0,0,1,.8,3.12,6.74,6.74,0,0,1-.23,1.92m2.77-4.58a5.83,5.83,0,0,0-1-2,4.33,4.33,0,0,0-1.69-1.32,5.83,5.83,0,0,0-2.46-.48,11.75,11.75,0,0,0-1.47.11,10.54,10.54,0,0,0-1.52.32V22.48c0-.2,0-.32-.09-.36a.6.6,0,0,0-.36-.07h-.74a1.6,1.6,0,0,0-1.58,1.62s0,.1,0,.15V38.25a.8.8,0,0,0,.07.35.57.57,0,0,0,.28.21,8.18,8.18,0,0,0,2.35.67,16.36,16.36,0,0,0,2.5.2,6.94,6.94,0,0,0,2.72-.5A5.17,5.17,0,0,0,95,37.79a5.66,5.66,0,0,0,1.07-2.11A9.72,9.72,0,0,0,96.41,33a9.91,9.91,0,0,0-.32-2.55" transform="translate(-0.02 0)"/><path d="M103.1,28.95a2.54,2.54,0,0,0-1.14.25,2.71,2.71,0,0,0-.86.68,3.9,3.9,0,0,0-.57,1,3.19,3.19,0,0,0-.24,1.14h5.47a4.83,4.83,0,0,0-.12-1.19,2.38,2.38,0,0,0-.42-1,2.12,2.12,0,0,0-.8-.66,3.28,3.28,0,0,0-1.33-.24m0-2.3a4.75,4.75,0,0,1,5.37,5.25,3.37,3.37,0,0,1-.13,1,1.74,1.74,0,0,1-.41.64,1.3,1.3,0,0,1-.61.32,2.7,2.7,0,0,1-.75.09h-6.32a4.2,4.2,0,0,0,.27,1.57,2.87,2.87,0,0,0,.72,1,2.66,2.66,0,0,0,1,.56,4.89,4.89,0,0,0,1.3.16A6,6,0,0,0,105,37a7,7,0,0,0,1.28-.45c.24-.11.43-.07.52.14l.65,1.35a.42.42,0,0,1-.17.55,6,6,0,0,1-2,.76,10.69,10.69,0,0,1-2.05.22A5.83,5.83,0,0,1,98.87,38c-1-1-1.53-2.66-1.53-4.89a8.42,8.42,0,0,1,.42-2.79,6.11,6.11,0,0,1,1.18-2.06,4.91,4.91,0,0,1,1.8-1.28,5.7,5.7,0,0,1,2.29-.45" transform="translate(-0.02 0)"/><path xmlns="http://www.w3.org/2000/svg" d="M114.59,38.84l-.17-1.33c0-.13,0-.21-.11-.24a.34.34,0,0,0-.28,0h-.85a.77.77,0,0,1-.64-.22,1.52,1.52,0,0,1-.15-.85V22.45c0-.18,0-.29-.12-.33a.66.66,0,0,0-.36-.07h-.77a1.61,1.61,0,0,0-1.58,1.64s0,.06,0,.08V36.9a3,3,0,0,0,.63,2.16,2.67,2.67,0,0,0,2,.63,7.08,7.08,0,0,0,1.08-.06,4.26,4.26,0,0,0,1.08-.25.77.77,0,0,0,.29-.2.52.52,0,0,0,0-.32" transform="translate(-0.02 0)"/><use xlink:href="#l" x="42" y="0"/><path xmlns="http://www.w3.org/2000/svg" d="M120.66,38.84l-.17-1.33c0-.13,0-.21-.1-.24a.34.34,0,0,0-.28,0h-.85a.78.78,0,0,1-.64-.22,1.47,1.47,0,0,1-.16-.85V22.45c0-.18,0-.29-.12-.33A.6.6,0,0,0,118,22h-.76a1.61,1.61,0,0,0-1.63,1.81v13a3,3,0,0,0,.63,2.16,2.63,2.63,0,0,0,1.95.63,7.27,7.27,0,0,0,1.09-.06,4.51,4.51,0,0,0,1.08-.25.83.83,0,0,0,.28-.2.5.5,0,0,0,0-.32" transform="translate(-0.02 0)"/><use xlink:href="#l" x="48" y="0"/><use xlink:href="#a" x="63.6" y="20.3"/></g><path d="M32.29,17.21A9.15,9.15,0,0,1,20,19.93h0A24.91,24.91,0,0,1,16.35,17C8.65,19.1,0,23,0,27.42c0,6.65,19.26,12,25.89,12a12,12,0,0,0,6.4-22.2" transform="translate(-0.02 0)" fill="#008441"/><path d="M25.94,15.4h0a6.76,6.76,0,0,1,1.11.06h.14a10.73,10.73,0,0,1,1.1.16h0a12.56,12.56,0,0,1,4,1.58l.26-.37A9.13,9.13,0,0,0,29.49,4.29h0c-4.33-2.62-19-6.71-21.62-2.4-2,3.34,3.73,10.7,8.46,15.13a41.76,41.76,0,0,1,9.57-1.62h0" transform="translate(-0.02 0)" fill="#c3d500"/></svg>
